<svg width="549" height="48" viewBox="0 0 549 48" fill="none" xmlns="http://www.w3.org/2000/svg">
<path d="M402.249 23.373L399.512 24.2568L393.38 44.4189H400.591L406.193 38.707L406.856 39.0977L402.793 47.207H402.402L400.566 46H385.946L386.133 45.3877L388.87 44.5215L395.058 24.2227L392.763 23.373L392.95 22.7607H402.436L402.249 23.373Z" fill="#00874D"/>
<path fill-rule="evenodd" clip-rule="evenodd" d="M417.552 30.1387C418.696 30.1387 419.66 30.366 420.442 30.8193C421.224 31.2612 421.819 31.8957 422.227 32.7227C422.635 33.5499 422.839 34.5361 422.839 35.6807C422.839 37.1086 422.596 38.4635 422.108 39.7441C421.632 41.0248 420.963 42.1691 420.102 43.1777C419.252 44.1751 418.266 44.963 417.144 45.541C416.022 46.1189 414.821 46.4082 413.54 46.4082C412.407 46.4082 411.444 46.187 410.65 45.7451C409.868 45.2918 409.273 44.6514 408.865 43.8242C408.457 42.9856 408.253 41.9995 408.253 40.8662C408.253 39.4496 408.497 38.1009 408.984 36.8203C409.472 35.5283 410.14 34.3831 410.99 33.3857C411.84 32.3772 412.826 31.5838 413.948 31.0059C415.07 30.428 416.271 30.1387 417.552 30.1387ZM417.603 31.3975C417.081 31.3976 416.554 31.6292 416.021 32.0938C415.489 32.547 414.979 33.1707 414.492 33.9639C414.016 34.7459 413.586 35.6302 413.2 36.6162C412.826 37.5908 412.532 38.6052 412.316 39.6592C412.101 40.7017 411.993 41.7101 411.993 42.6846C411.993 43.5572 412.112 44.1869 412.35 44.5723C412.599 44.9576 412.979 45.1504 413.489 45.1504C414.01 45.1503 414.538 44.923 415.07 44.4697C415.603 44.0051 416.107 43.3814 416.583 42.5996C417.07 41.8177 417.501 40.9394 417.875 39.9648C418.26 38.9789 418.561 37.9645 418.776 36.9219C418.992 35.8681 419.099 34.8481 419.099 33.8623C419.099 32.9783 418.974 32.3486 418.725 31.9746C418.487 31.5896 418.112 31.3975 417.603 31.3975Z" fill="#00874D"/>
<path d="M434.076 30.1387C435.402 30.1387 436.36 30.3828 436.949 30.8701C437.55 31.3575 437.851 31.9526 437.851 32.6553C437.851 33.2331 437.652 33.6923 437.256 34.0322C436.871 34.3608 436.372 34.5306 435.76 34.542C435.476 34.542 435.239 34.4226 435.046 34.1846C434.865 33.9352 434.705 33.5443 434.569 33.0117C434.433 32.4906 434.24 32.1057 433.991 31.8564C433.742 31.6072 433.431 31.4825 433.057 31.4824C432.456 31.4824 431.878 31.7371 431.322 32.2471C430.778 32.757 430.297 33.4426 429.878 34.3037C429.459 35.165 429.123 36.129 428.874 37.1943C428.636 38.2594 428.518 39.3529 428.518 40.4746C428.518 41.6193 428.71 42.4418 429.096 42.9404C429.481 43.4388 430.082 43.6885 430.897 43.6885C431.43 43.6885 431.94 43.5806 432.428 43.3652C432.926 43.1499 433.419 42.7925 433.906 42.2939C434.394 41.7953 434.881 41.1098 435.368 40.2373L436.134 40.2539C435.488 41.8403 434.819 43.0813 434.128 43.9766C433.448 44.8719 432.71 45.5016 431.917 45.8643C431.135 46.2268 430.273 46.4082 429.333 46.4082C427.747 46.4081 426.534 45.9659 425.695 45.082C424.868 44.198 424.454 42.9396 424.454 41.3076C424.454 39.7664 424.71 38.3212 425.22 36.9727C425.73 35.6242 426.427 34.4398 427.311 33.4199C428.194 32.3887 429.214 31.5838 430.37 31.0059C431.537 30.4279 432.773 30.1387 434.076 30.1387Z" fill="#00874D"/>
<path fill-rule="evenodd" clip-rule="evenodd" d="M447.637 30.292C448.373 30.292 449.025 30.4566 449.592 30.7852C449.983 31.0001 450.348 31.3097 450.688 31.7119L450.697 31.6855L452.244 30.5469H454.93L450.646 43.6494C450.823 43.6083 451.004 43.5536 451.19 43.4844C451.689 43.2917 452.216 42.991 452.771 42.583C453.327 42.175 453.911 41.6531 454.522 41.0186L454.998 41.4775C453.718 43.2453 452.516 44.5092 451.395 45.2686C450.284 46.0278 449.23 46.4081 448.232 46.4082C447.519 46.4082 447.02 46.2719 446.736 46C446.464 45.7167 446.413 45.3089 446.583 44.7764L448.079 40.2451C447.454 41.1958 446.878 42.016 446.345 42.7021C445.597 43.654 444.906 44.4023 444.271 44.9463C443.648 45.479 443.058 45.853 442.503 46.0684C441.959 46.2836 441.42 46.3906 440.888 46.3906C440.219 46.3906 439.63 46.2606 439.12 46C438.622 45.7507 438.231 45.3712 437.947 44.8613C437.664 44.3401 437.523 43.6996 437.522 42.9404C437.522 41.9205 437.704 40.8379 438.066 39.6934C438.429 38.5374 438.933 37.4036 439.579 36.293C440.225 35.1823 440.973 34.1733 441.823 33.2666C442.684 32.3602 443.608 31.641 444.594 31.1084C445.58 30.5645 446.594 30.2921 447.637 30.292ZM448.589 32.0088C447.92 32.0089 447.258 32.2531 446.601 32.7402C445.943 33.2276 445.32 33.8678 444.73 34.6611C444.141 35.443 443.619 36.2983 443.166 37.2275C442.724 38.1454 442.373 39.0468 442.112 39.9307C441.852 40.8031 441.721 41.5683 441.721 42.2256C441.721 42.7243 441.823 43.0815 442.027 43.2969C442.243 43.5008 442.549 43.6025 442.945 43.6025C443.274 43.6025 443.66 43.484 444.102 43.2461C444.555 43.0081 445.031 42.6569 445.529 42.1924C446.028 41.7277 446.527 41.1493 447.025 40.458C447.524 39.7667 447.983 38.9672 448.402 38.0605L450.288 32.8213C450.157 32.6463 449.999 32.4942 449.813 32.3662C449.496 32.1282 449.088 32.0088 448.589 32.0088Z" fill="#00874D"/>
<path d="M460.046 43.7363C460.21 43.7125 460.378 43.6804 460.549 43.6367C461.081 43.4894 461.654 43.2178 462.266 42.8213C462.889 42.4246 463.557 41.863 464.271 41.1377L464.748 41.5967C463.864 42.764 463.008 43.7049 462.181 44.4189C461.365 45.1216 460.577 45.6319 459.817 45.9492C459.058 46.2551 458.333 46.4082 457.642 46.4082C456.814 46.4082 456.259 46.2605 455.976 45.9658C455.692 45.6711 455.664 45.1838 455.891 44.5039L462.027 24.9365C461.823 24.7327 461.608 24.5343 461.382 24.3418C461.167 24.1491 460.929 23.9563 460.668 23.7637C460.407 23.571 460.118 23.3844 459.801 23.2031L459.954 22.6416L466.651 21.4863H467.06L460.046 43.7363Z" fill="#00874D"/>
<path fill-rule="evenodd" clip-rule="evenodd" d="M507.27 30.1387C508.255 30.1387 509.049 30.2812 509.649 30.5645C510.25 30.8478 510.681 31.2272 510.941 31.7031C511.213 32.1677 511.35 32.6781 511.35 33.2334C511.35 33.7659 511.247 34.2933 511.043 34.8145C510.85 35.3241 510.579 35.7658 510.228 36.1396C509.627 36.4003 508.957 36.6675 508.221 36.9395C507.484 37.2 506.714 37.4601 505.909 37.7207C505.105 37.9813 504.283 38.2308 503.444 38.4688C502.945 38.6125 502.447 38.7503 501.951 38.8857C501.883 39.4252 501.846 39.9546 501.846 40.4746C501.846 41.6193 502.073 42.4418 502.526 42.9404C502.991 43.4388 503.625 43.6884 504.43 43.6885C505.019 43.6885 505.574 43.5857 506.096 43.3818C506.617 43.1778 507.127 42.8321 507.626 42.3447C508.136 41.8461 508.641 41.1439 509.14 40.2373L509.921 40.2539C509.264 41.8746 508.578 43.133 507.864 44.0283C507.15 44.9122 506.385 45.5295 505.569 45.8809C504.765 46.2322 503.869 46.4082 502.883 46.4082C501.795 46.4082 500.872 46.2038 500.112 45.7959C499.353 45.3879 498.775 44.8043 498.378 44.0449C497.981 43.2743 497.783 42.3616 497.783 41.3076C497.783 40.1291 497.941 38.9898 498.259 37.8906C498.576 36.7914 499.025 35.7769 499.603 34.8477C500.192 33.9072 500.877 33.0854 501.659 32.3828C502.452 31.669 503.319 31.1197 504.26 30.7344C505.212 30.3377 506.216 30.1387 507.27 30.1387ZM506.674 31.4141C506.119 31.4141 505.597 31.6008 505.11 31.9746C504.623 32.3372 504.176 32.8362 503.768 33.4707C503.371 34.094 503.03 34.8025 502.747 35.5957C502.508 36.2547 502.316 36.9346 502.166 37.6338C502.829 37.4023 503.42 37.1779 503.938 36.9561C504.742 36.6161 505.405 36.287 505.926 35.9697C506.447 35.6524 506.856 35.3296 507.15 35.001C507.445 34.6724 507.655 34.338 507.779 33.998C507.904 33.6581 507.966 33.2954 507.966 32.9102C507.966 32.593 507.915 32.3266 507.813 32.1113C507.711 31.8847 507.564 31.7139 507.371 31.6006C507.19 31.476 506.957 31.4141 506.674 31.4141Z" fill="#00874D"/>
<path d="M533.376 30.1387C533.829 30.1387 534.226 30.2519 534.566 30.4785C534.906 30.6938 535.166 31.023 535.348 31.4648C535.529 31.8955 535.62 32.4456 535.62 33.1143C535.62 34.3381 535.434 35.5791 535.06 36.8369C534.697 38.0949 534.192 39.2967 533.546 40.4414C532.9 41.5859 532.152 42.6057 531.302 43.501C530.452 44.3962 529.54 45.1047 528.565 45.626C527.591 46.1473 526.605 46.4081 525.607 46.4082C524.622 46.4082 523.856 46.2038 523.312 45.7959C522.769 45.388 522.496 44.7139 522.496 43.7734C522.496 43.4788 522.524 43.1497 522.581 42.7871C522.649 42.4244 522.74 42.0273 522.854 41.5967L522.856 41.584C522.684 41.9208 522.508 42.2377 522.326 42.5322C521.737 43.4728 521.13 44.2316 520.507 44.8096C519.895 45.3762 519.271 45.7848 518.637 46.0342C518.014 46.2834 517.413 46.4082 516.835 46.4082C515.826 46.4082 515.045 46.1526 514.489 45.6426C513.934 45.1213 513.656 44.3738 513.656 43.3994C513.656 42.7195 513.803 41.9314 514.098 41.0361L516.665 33.1992C516.654 33.1199 516.625 33.0571 516.58 33.0117C516.546 32.9666 516.484 32.9444 516.394 32.9443C516.02 32.9443 515.651 33.0345 515.288 33.2158C514.937 33.3858 514.557 33.7148 514.149 34.2021C513.753 34.6895 513.299 35.3978 512.789 36.3271L512.177 36.0381C512.63 34.9275 513.089 33.998 513.554 33.25C514.03 32.4907 514.535 31.8902 515.067 31.4482C515.6 30.9949 516.167 30.6712 516.768 30.4785C517.379 30.2746 518.037 30.1729 518.739 30.1729C519.125 30.1729 519.47 30.1896 519.776 30.2236C520.082 30.2463 520.372 30.2861 520.644 30.3428C520.915 30.3881 521.176 30.4448 521.425 30.5127L518.093 40.7979C517.957 41.2283 517.855 41.608 517.787 41.9365C517.73 42.2536 517.702 42.5316 517.702 42.7695C517.702 43.2002 517.804 43.5071 518.008 43.6885C518.212 43.8698 518.507 43.96 518.893 43.96C519.425 43.9598 519.981 43.7052 520.559 43.1953C521.148 42.6853 521.709 41.9424 522.241 40.9678C522.785 39.9931 523.239 38.8089 523.602 37.415L525.505 30.5469H529.313L526.56 40.8828C526.48 41.2341 526.412 41.5517 526.355 41.835C526.31 42.107 526.287 42.3563 526.287 42.583C526.287 43.0817 526.407 43.4442 526.645 43.6709C526.882 43.8974 527.228 44.0107 527.681 44.0107C528.213 44.0107 528.747 43.8525 529.279 43.5352C529.823 43.2065 530.339 42.7696 530.826 42.2256C531.313 41.6704 531.75 41.0529 532.135 40.373C532.52 39.6817 532.821 38.9734 533.036 38.248C533.263 37.5114 533.376 36.803 533.376 36.123C533.376 35.5677 533.263 35.1087 533.036 34.7461C532.821 34.3834 532.571 34.0712 532.288 33.8105C532.005 33.5388 531.75 33.29 531.523 33.0635C531.308 32.8255 531.2 32.5583 531.2 32.2637C531.2 31.6406 531.41 31.1309 531.829 30.7344C532.26 30.3377 532.775 30.1387 533.376 30.1387Z" fill="#00874D"/>
<path d="M544.786 30.1387C545.715 30.1387 546.457 30.2467 547.013 30.4619C547.579 30.6772 547.988 30.9664 548.237 31.3291C548.498 31.6917 548.628 32.0996 548.628 32.5527C548.628 32.904 548.548 33.21 548.39 33.4707C548.242 33.72 548.016 33.9128 547.71 34.0488C547.404 34.1848 547.018 34.2529 546.554 34.2529C546.497 33.981 546.401 33.7262 546.265 33.4883C546.129 33.2503 545.931 32.9381 545.67 32.5527C545.398 32.1675 545.103 31.8729 544.786 31.6689C544.469 31.4649 544.14 31.3633 543.8 31.3633C543.154 31.3633 542.661 31.5278 542.321 31.8564C541.981 32.1851 541.812 32.6326 541.812 33.1992C541.812 33.4712 541.873 33.7605 541.998 34.0664C542.123 34.3723 542.344 34.7289 542.661 35.1367C542.978 35.5447 543.426 36.0497 544.004 36.6504C544.593 37.2397 545.058 37.7889 545.398 38.2988C545.738 38.7975 545.982 39.2795 546.129 39.7441C546.276 40.1973 546.35 40.6504 546.35 41.1035C546.35 42.0555 546.078 42.9346 545.534 43.7393C544.99 44.5438 544.242 45.1895 543.29 45.6768C542.338 46.1641 541.244 46.4082 540.009 46.4082C539.023 46.4082 538.224 46.2949 537.612 46.0684C537 45.853 536.547 45.5638 536.252 45.2012C535.969 44.8272 535.827 44.4133 535.827 43.96C535.827 43.586 535.912 43.2685 536.082 43.0078C536.252 42.7359 536.496 42.5262 536.813 42.3789C537.142 42.2317 537.545 42.1582 538.021 42.1582C538.111 42.4074 538.224 42.6623 538.36 42.9229C538.508 43.1835 538.734 43.5408 539.04 43.9941C539.357 44.4361 539.675 44.7421 539.992 44.9121C540.309 45.082 540.644 45.167 540.995 45.167C541.494 45.167 541.924 45.0874 542.287 44.9287C542.661 44.7701 542.944 44.5382 543.137 44.2324C543.341 43.9264 543.443 43.5576 543.443 43.127C543.443 42.8096 543.381 42.4921 543.256 42.1748C543.131 41.8462 542.91 41.4835 542.593 41.0869C542.287 40.679 541.839 40.1969 541.25 39.6416C540.672 39.0864 540.208 38.5707 539.856 38.0947C539.516 37.6074 539.272 37.1317 539.125 36.667C538.978 36.2023 538.904 35.7203 538.904 35.2217C538.904 34.2925 539.136 33.4424 539.601 32.6719C540.077 31.9012 540.751 31.2893 541.624 30.8359C542.508 30.3713 543.562 30.1387 544.786 30.1387Z" fill="#00874D"/>
<path d="M294.42 0C306.205 9.8361e-05 312.445 4.38321 312.445 12.2266V13.1494H297.654C297.423 10.3813 296.268 9.22754 293.726 9.22754C291.415 9.22781 290.029 10.612 290.028 12.2266C290.028 15.4563 293.033 15.226 298.811 16.8408C309.21 19.6092 314.063 22.3785 314.063 30.6836C314.063 40.1417 306.436 46.37 293.495 46.3701C280.323 46.37 273.39 41.2945 273.39 32.7588V31.1445H290.028V31.6055C290.028 34.6042 291.416 35.9891 294.188 35.9893C296.73 35.9891 298.349 34.6042 298.349 32.7588C298.349 31.3748 297.654 30.2211 296.499 29.7598C294.188 28.6064 290.259 27.9146 284.944 26.2998C277.78 23.9928 274.314 20.5317 274.314 14.0723C274.315 5.306 281.479 1.82357e-05 294.42 0Z" fill="#00874D"/>
<path d="M491.809 40.6045L496.84 24.1719L494.323 23.373L494.511 22.7607H501.276L501.106 23.373L498.37 24.1895L491.654 46.2041H489.343L481.854 25.7178L476.083 44.5889L478.599 45.4053L478.412 46H471.629L471.815 45.4053L474.536 44.5723L480.655 24.5801L478.071 23.3389L478.241 22.7607H485.212L491.809 40.6045Z" fill="#00874D"/>
<path fill-rule="evenodd" clip-rule="evenodd" d="M182.568 45.6777H164.08L162.463 38.5264H149.521L147.903 45.6777H130.802L145.592 0.692383H168.239L182.568 45.6777ZM152.294 27.4531H160.151L156.223 9.68945L152.294 27.4531Z" fill="#00874D"/>
<path d="M16.8701 15.9189H24.7275V0.692383H41.5977V45.4482H24.7275V28.8369H16.8701V45.4482H0V0.692383H16.8701V15.9189Z" fill="#00874D"/>
<path d="M106.074 12.2266H89.4346V17.0713H104.919V28.6064H89.4346V33.9121H106.537V45.4482H72.5645V0.692383H106.074V12.2266Z" fill="#00874D"/>
<path fill-rule="evenodd" clip-rule="evenodd" d="M229.942 0.692383C242.191 0.692383 247.969 2.99988 247.969 11.9971C247.968 17.3026 244.964 20.7631 239.188 22.3779C245.196 23.3008 246.814 26.0691 247.507 32.5283L247.969 37.373C248.2 39.4493 248.893 42.2185 249.586 45.4482H232.485C231.792 43.3721 231.33 41.2949 231.099 39.2188L230.637 35.9893C229.943 31.1448 229.25 29.298 225.321 29.2979H223.703V45.4482H207.064V0.692383H229.942ZM223.703 19.1475C224.165 19.1475 224.627 19.1483 224.858 19.3789C229.018 19.3789 231.099 17.533 231.099 14.7646C231.099 11.9963 229.249 10.8428 225.552 10.8428H223.703V19.1475Z" fill="#00874D"/>
<path d="M374.38 12.6885H363.749V45.4482H346.547L346.417 12.6885H335.556V0.692383H374.38V12.6885Z" fill="#00874D"/>
</svg>
