<svg width="188" height="21" viewBox="0 0 188 21" fill="none" xmlns="http://www.w3.org/2000/svg">
<path d="M10.7 0.299988V6.89999H7.3V0.299988H0V19.7H7.3V12.5H10.7V19.7H18V0.299988H10.7Z" fill="#2D75B9"/>
<path d="M31.3999 0.299988V19.7H46.0999V14.7H38.6999V12.4H45.3999V7.39999H38.6999V5.29999H45.8999V0.299988H31.3999Z" fill="#2D75B9"/>
<path d="M67.6001 4.19999L69.3001 11.9H65.9001L67.6001 4.19999ZM63.0001 0.299988L56.6001 19.8H64.0001L64.7001 16.7H70.3001L71.0001 19.8H79.0001L72.8001 0.299988H63.0001Z" fill="#2D75B9"/>
<path d="M89.5 19.7H96.8V12.7C97 12.7 97.3 12.7 97.5 12.7C99.2 12.7 99.5 13.5 99.8 15.6L100 17C100.1 17.9 100.3 18.8 100.6 19.7H108C107.7 18.3 107.4 17.1 107.3 16.2L107.1 14.1C106.8 11.3 106.1 10.1 103.5 9.69999C106 8.99999 107.3 7.49999 107.3 5.19999C107.3 1.29999 104.8 0.299988 99.5 0.299988H89.6V19.7H89.5ZM96.8 8.29999V4.69999C97.1 4.69999 97.4 4.69999 97.6 4.69999C99.2 4.69999 100 5.19999 100 6.39999C100 7.59999 99.1 8.39999 97.3 8.39999C97.2 8.29999 97 8.29999 96.8 8.29999Z" fill="#2D75B9"/>
<path d="M125.5 13.5V13.7C125.5 15 126.1 15.6 127.3 15.6C128.4 15.6 129.1 15 129.1 14.2C129.1 13.6 128.8 13.1 128.3 12.9C127.3 12.4 125.6 12.1 123.3 11.4C120.2 10.4 118.7 8.9 118.7 6.1C118.7 2.3 121.8 0 127.4 0C132.5 0 135.2 1.9 135.2 5.3V5.7H128.8C128.7 4.5 128.2 4 127.1 4C126.1 4 125.5 4.6 125.5 5.3C125.5 6.7 126.8 6.6 129.3 7.3C133.8 8.5 135.9 9.7 135.9 13.3C135.9 17.4 132.6 20.1 127 20.1C121.3 20.1 118.3 17.9 118.3 14.2C118.3 14 118.3 13.8 118.3 13.5H125.5Z" fill="#2D75B9"/>
<path d="M145.2 0.299988V5.49999H149.9V19.7H157.4V5.49999H162V0.299988H145.2Z" fill="#2D75B9"/>
<path d="M183.1 7.2002H187.8V12.5H183.2V17H175.7V12.5H171V7.2002H175.6V2.5H183.1V7.2002Z" fill="#2D75B9"/>
</svg>
